<svg id="Layer_1" data-name="Layer 1" xmlns="http://www.w3.org/2000/svg" viewBox="0 0 446.35 126.09"><defs><style>.cls-1{fill-rule:evenodd;}</style></defs><title>Artboard 1 copy</title><g id="_Group_" data-name="&lt;Group&gt;"><path id="_Compound_Path_" data-name="&lt;Compound Path&gt;" class="cls-1" d="M.08.28h69.7V14.22H14V125.74H.08ZM237,125.74h69.7V77H292.77V111.8H251V.28H237ZM306.71,70H292.77V.28h13.94ZM153.4.28H83.7V49.07H97.64V14.22h41.82V125.74H153.4ZM83.7,56.07h48.79V70H97.64v55.73H83.7ZM167.31.28h13.94V104.8H167.31Zm55.76,125.46H167.31V111.8h55.76ZM69.78,70H21V56H55.84V21.19H69.78Z"/><g id="_Group_2" data-name="&lt;Group&gt;"><path d="M320.65.28V125.74h60V113.33L362.28,95a2.73,2.73,0,0,1,3.86-3.85l14.51,14.51V88.77L362.28,70.4a2.73,2.73,0,1,1,3.86-3.85l14.51,14.51V39.67L362.28,21.3a2.73,2.73,0,0,1,3.86-3.86L380.65,32V8.46a2.73,2.73,0,0,1,5.46,0V32l14.51-14.52a2.73,2.73,0,0,1,3.86,3.86L386.11,39.67V81.06l14.51-14.51a2.73,2.73,0,1,1,3.86,3.85L386.11,88.77v16.84L400.62,91.1A2.73,2.73,0,0,1,404.48,95l-18.37,18.38v12.41h60V.28Z"/></g></g></svg>