<?xml version="1.0" encoding="utf-8"?>
<!-- Generator: Adobe Illustrator 22.0.0, SVG Export Plug-In . SVG Version: 6.00 Build 0)  -->
<svg version="1.1" id="Layer_1" xmlns="http://www.w3.org/2000/svg" xmlns:xlink="http://www.w3.org/1999/xlink" x="0px" y="0px"
	 viewBox="0 0 595 842" style="enable-background:new 0 0 595 842;" xml:space="preserve">
<style type="text/css">
	.st0{fill-rule:evenodd;clip-rule:evenodd;}
	.st1{font-family:'ArialMT';}
	.st2{font-size:24px;}
</style>
<path d="M95.1,541.5l198.7,0l0.1-41.2l-61.5-61.5c-3-3.5-2.3-8.6-0.2-11.1c1.5-2.4,7.8-6.3,13.5-1.1l48.2,48.2v-55.8
	c-20.3-20.4-40.1-40-60.4-60.4c-2.1-1.3-5.4-8.1-0.6-13.1c5.4-5.2,11.5-1.8,12.9-0.1l48.1,48.1V256.4l-60.9-60.9
	c-2.3-1.9-4.6-8.4,0-12.8c5.4-5.1,11.6-1.6,12.8,0l48.1,48.1c0-26.3,0-52,0-78.3c0.8-7.7,7.5-8.6,8.9-8.6c7.7,0,9.6,7.7,9.1,10.3
	v76.5l48.1-48.1c3.3-3.2,9.3-3.7,12.8,0c4.6,4.6,2.4,10.5,0.3,12.4L312,256.4v137.1l48.1-48.1c1.6-1.6,7.1-5.1,12.8,0
	c4.9,5.4,1.7,11,0.4,12.4L312,419.1v55.8l48.1-48.1c1.9-2.2,8.3-4.7,12.9,0.2c1.6,1.3,5.2,7.8-1,13.5l-60,60v41.1h198.8V125.9H95.1
	V541.5z"/>
<path class="st0" d="M95.1,559.6h94.5v18.9H114v151.2H95.1V559.6z M416.3,729.6h94.5v-66.1h-18.9v47.2h-56.7V559.6h-18.9V729.6z
	 M510.8,654.1h-18.9v-94.5h18.9V654.1z M303,559.6h-94.5v66.1h18.9v-47.2h56.7v151.2H303V559.6z M208.5,635.2h66.1v18.9h-47.2v75.5
	h-18.9V635.2z M321.8,701.3h18.9H321.8z M340.7,701.3h-18.9V559.6h18.9V701.3z M397.4,710.7v18.9h-75.6v-18.9h18.9H397.4z
	 M189.6,654.1h-66.1v-18.9h47.2v-47.2h18.9V654.1z"/>
<text transform="matrix(1 0 0 1 524.7354 569.5742)" class="st1 st2">®</text>
</svg>
