<?xml version="1.0" standalone="no"?>
<!DOCTYPE svg PUBLIC "-//W3C//DTD SVG 20010904//EN"
 "http://www.w3.org/TR/2001/REC-SVG-20010904/DTD/svg10.dtd">
<svg version="1.0" xmlns="http://www.w3.org/2000/svg"
 width="225.000000pt" height="225.000000pt" viewBox="0 0 225.000000 225.000000"
 preserveAspectRatio="xMidYMid meet">
<metadata>
Created by potrace 1.11, written by Peter Selinger 2001-2013
</metadata>
<g transform="translate(0.000000,225.000000) scale(0.100000,-0.100000)"
fill="#000000" stroke="none">
<path d="M1083 2240 c-42 -17 -50 -53 -48 -230 1 -91 -1 -169 -3 -173 -2 -5
-55 41 -117 102 -92 92 -117 111 -142 111 -45 0 -83 -40 -83 -86 0 -35 11 -49
172 -211 l173 -174 0 -319 c0 -176 -3 -320 -6 -320 -4 0 -20 15 -36 33 -16 17
-66 67 -110 110 -66 63 -86 77 -112 77 -45 0 -81 -38 -81 -86 0 -35 11 -49
172 -211 l173 -174 0 -99 c0 -55 0 -100 -1 -100 0 0 -48 47 -105 104 -57 57
-113 108 -124 113 -59 30 -123 -27 -116 -104 1 -6 79 -89 173 -183 l173 -173
-1 -122 -1 -122 84 0 c69 0 83 3 84 16 0 9 2 64 2 123 l2 107 173 174 c139
140 172 179 172 201 0 37 -15 63 -48 79 -46 24 -78 5 -192 -108 l-107 -107 0
101 0 101 174 175 c155 156 173 177 173 207 -1 37 -14 59 -47 76 -48 26 -67
16 -181 -98 -60 -60 -112 -110 -114 -110 -3 0 -5 144 -5 320 l0 320 174 175
c155 155 173 177 173 207 -1 53 -31 83 -82 83 -41 -1 -47 -5 -150 -108 -59
-59 -109 -107 -111 -107 -2 0 -4 79 -4 175 0 180 -6 216 -42 230 -29 12 -56
14 -78 5z"/>
</g>
</svg>
