<?xml version="1.0" encoding="utf-8"?>
<!-- Generator: Adobe Illustrator 22.0.0, SVG Export Plug-In . SVG Version: 6.00 Build 0)  -->
<svg version="1.1" id="Layer_1" xmlns="http://www.w3.org/2000/svg" xmlns:xlink="http://www.w3.org/1999/xlink" x="0px" y="0px"
	 viewBox="0 0 58.6 51.8" style="enable-background:new 0 0 58.6 51.8;" xml:space="preserve">
<style type="text/css">
	.st0{fill:none;stroke:#000000;stroke-width:4;stroke-miterlimit:10;}
</style>
<g>
	<g>
		<g>
			<path class="st0" d="M8.9,14.7h40H8.9z"/>
		</g>
		<path d="M40.9,16.2c1.7,0,3.3,0,5,0c-0.2,0.6-0.3,1.3,0,2c0.5,1.4,2.1,1.7,2,2c-0.1,0.4-2.9,0.6-5-1
			C41.6,18.2,41.1,16.9,40.9,16.2z"/>
	</g>
	<g>
		<g>
			<path class="st0" d="M48.9,25.7h-40H48.9z"/>
		</g>
		<path d="M16.9,27.2c-1.7,0-3.3,0-5,0c0.2,0.6,0.3,1.3,0,2c-0.5,1.4-2.1,1.7-2,2c0.1,0.4,2.9,0.6,5-1
			C16.1,29.2,16.7,27.9,16.9,27.2z"/>
	</g>
	<g>
		<g>
			<path class="st0" d="M8.9,36.7h40H8.9z"/>
		</g>
		<path d="M40.9,38.2c1.7,0,3.3,0,5,0c-0.2,0.6-0.3,1.3,0,2c0.5,1.4,2.1,1.7,2,2c-0.1,0.4-2.9,0.6-5-1
			C41.6,40.2,41.1,38.9,40.9,38.2z"/>
	</g>
</g>
</svg>
